<svg id="Calque_1" data-name="Calque 1" xmlns="http://www.w3.org/2000/svg" xmlns:xlink="http://www.w3.org/1999/xlink" width="4.25cm" height="4.03cm" viewBox="0 0 120.52 114.22"><defs><style>.cls-1{fill:none;}.cls-2{clip-path:url(#clip-path);}.cls-3,.cls-6{fill:#2c519c;}.cls-4{fill:#e73331;}.cls-5{fill:#fff;}.cls-6{fill-rule:evenodd;}.cls-7{fill:#2e2d2c;}</style><clipPath id="clip-path" transform="translate(-1.62 -0.87)"><path class="cls-1" d="M61.86,99.44A12.91,12.91,0,0,0,67.75,98v13.64l-5.83-4.58-6,4.58V98A12.88,12.88,0,0,0,61.86,99.44Z"/></clipPath></defs><g class="cls-2"><rect class="cls-3" x="52.5" y="94.03" width="6.6" height="20.19"/><rect class="cls-4" x="61.68" y="94.03" width="6.6" height="20.19"/></g><path class="cls-3" d="M61.88,76.06A10.19,10.19,0,1,0,72.07,86.25,10.19,10.19,0,0,0,61.88,76.06Z" transform="translate(-1.62 -0.87)"/><path class="cls-5" d="M61.88,78.44a7.81,7.81,0,1,0,7.8,7.81A7.81,7.81,0,0,0,61.88,78.44Z" transform="translate(-1.62 -0.87)"/><path class="cls-4" d="M61.88,80.5a5.75,5.75,0,1,0,5.74,5.75A5.74,5.74,0,0,0,61.88,80.5Z" transform="translate(-1.62 -0.87)"/><polygon class="cls-5" points="62.15 86.05 64.07 84.2 61.43 83.83 60.26 81.43 59.09 83.83 56.44 84.2 58.37 86.05 57.91 88.68 60.26 87.42 62.62 88.68 62.15 86.05"/><path class="cls-6" d="M95.89,7.3l-5.72.43,4.34,2.93,5.73-.44L95.89,7.3Zm.32-.47C95.62,5,95,3.18,94.45,1.36L98.8,4.29q.87,2.73,1.76,5.46L96.21,6.83Zm5.05,5-5.73-.39L99.41,15l5.73.39-3.88-3.51Zm.37-.42-1-5.66,3.89,3.51,1,5.66-3.89-3.51ZM106,17.07l-5.62-1.2,3.35,4,5.61,1.2-3.34-4Zm.43-.36c0-1.91-.09-3.83-.14-5.74l3.35,4c0,1.92.09,3.83.14,5.74l-3.35-4Zm3.63,6.12-5.39-2,2.73,4.47,5.38,2q-1.36-2.24-2.72-4.47Zm.48-.29.69-5.7q1.35,2.23,2.72,4.47l-.69,5.7-2.72-4.47Zm2.76,6.51-5.17-2.52,2.28,4.72,5.17,2.52-2.28-4.72Zm.51-.25q.61-2.79,1.24-5.6c.76,1.57,1.51,3.14,2.28,4.71-.42,1.87-.83,3.74-1.25,5.61q-1.14-2.36-2.27-4.72Zm1.94,6.86L111,32.41q.78,2.49,1.55,5l4.74,3.25q-.78-2.5-1.55-5Zm.53-.17c.69-1.79,1.37-3.58,2.06-5.36.52,1.66,1,3.33,1.55,5-.68,1.79-1.37,3.57-2,5.36l-1.56-5Zm1,7-4.38-3.7,1,5.13,4.38,3.71-1-5.14Zm.55-.11q1.31-2.57,2.59-5.13c.34,1.71.7,3.42,1,5.13l-2.58,5.13-1-5.13Zm.13,7.13-3.78-4.33c.09,1.74.17,3.49.26,5.23l3.78,4.33c-.09-1.74-.18-3.49-.26-5.23Zm.56,0,3.33-4.68c.08,1.74.17,3.49.26,5.23l-3.33,4.68c-.09-1.74-.17-3.49-.26-5.23Zm-.77,7-3.32-4.69c-.08,1.75-.17,3.49-.27,5.23l3.32,4.69.27-5.23Zm.56,0,3.79-4.32-.27,5.23-3.79,4.32.27-5.23Zm-1.67,6.93-2.57-5.13q-.54,2.57-1.06,5.13l2.57,5.13c.35-1.71.71-3.42,1.06-5.13Zm.55.12,4.39-3.71-1,5.14-4.39,3.69,1-5.12Zm-2.53,6.65c-.59-1.82-1.19-3.65-1.78-5.46-.6,1.63-1.21,3.27-1.81,4.91.59,1.82,1.19,3.64,1.78,5.46.6-1.64,1.21-3.28,1.81-4.91Zm.53.19,4.89-3q-.9,2.46-1.81,4.92l-4.89,3q.91-2.46,1.81-4.92Zm-3.38,6.21-1.23-5.6q-1.15,2.36-2.28,4.71l1.23,5.61,2.28-4.72Zm.51.25,5.16-2.51-2.28,4.71-5.16,2.52,2.28-4.72Zm-4.15,5.78L107.78,77l-2.94,4.34.42,5.73,2.94-4.34Zm.46.32,5.47-1.74-2.93,4.33-5.47,1.74L108.66,83Zm-4.82,5.17c0-1.91.09-3.82.13-5.74l-3.34,4c0,1.91-.09,3.83-.13,5.74l3.34-4Zm.43.36,5.61-1.21-3.33,4-5.62,1.21,3.34-4Zm-5.49,4.54c.31-1.89.63-3.77,1-5.66l-3.88,3.52q-.48,2.82-.95,5.66l3.88-3.52Zm.38.42,5.73-.39L101,96.61l-5.73.4,3.89-3.52Zm-6,3.81c.59-1.82,1.17-3.65,1.76-5.47l-4.35,2.92c-.58,1.83-1.17,3.65-1.75,5.47l4.34-2.92Zm.32.47,5.72.43-4.34,2.92-5.73-.43,4.35-2.92Zm-6.41,3c.75-1.75,1.52-3.51,2.28-5.26L84.72,98l-2.28,5.27,4.61-2.49Zm.26.5,5.66,1-4.61,2.48-5.66-1,4.61-2.49Zm-6.79,2.15,3-4.88-4.92,1.79-3,4.87,4.93-1.78Zm.19.53,5.45,1.8-4.93,1.79-5.45-1.81,4.93-1.78ZM90,5.41,86.16.87l5.78,1.38,3.84,4.53L90,5.41Z" transform="translate(-1.62 -0.87)"/><path class="cls-6" d="M27.86,7.3l5.73.43-4.35,2.93-5.73-.44L27.86,7.3Zm-.32-.47C28.13,5,28.72,3.18,29.3,1.36L25,4.29c-.59,1.82-1.17,3.64-1.76,5.46l4.34-2.92Zm-5,5,5.73-.39L24.35,15l-5.73.39,3.88-3.51Zm-.38-.42,1-5.66L19.2,9.3c-.32,1.89-.65,3.77-1,5.66l3.88-3.51Zm-4.37,5.62,5.62-1.2c-1.11,1.34-2.23,2.68-3.34,4l-5.62,1.2c1.12-1.34,2.23-2.69,3.34-4Zm-.43-.36c.05-1.91.09-3.83.14-5.74l-3.34,4c0,1.92-.09,3.83-.14,5.74l3.34-4ZM13.7,22.83l5.38-2L16.35,25.3,11,27.3l2.73-4.47Zm-.48-.29-.69-5.7L9.8,21.31l.69,5.7,2.73-4.47Zm-2.76,6.51,5.16-2.52-2.28,4.72L8.18,33.77l2.28-4.72ZM10,28.8Q9.32,26,8.71,23.2L6.43,27.91c.41,1.87.83,3.74,1.24,5.61L10,28.8ZM8,35.66l4.73-3.25c-.52,1.66-1,3.33-1.55,5L6.45,40.66l1.56-5Zm-.54-.17c-.68-1.79-1.37-3.58-2-5.36l-1.56,5c.68,1.79,1.37,3.57,2.06,5.36.51-1.67,1-3.33,1.55-5Zm-1,7,4.39-3.7L9.78,43.92,5.39,47.63l1.05-5.14Zm-.55-.11L3.31,37.25,2.26,42.38l2.58,5.13,1-5.13Zm-.12,7.13,3.77-4.33c-.09,1.74-.17,3.49-.26,5.23L5.51,54.74c.08-1.74.17-3.49.26-5.23Zm-.56,0C4.09,47.92,3,46.36,1.88,44.8c-.09,1.74-.18,3.49-.26,5.23L5,54.71c.08-1.74.17-3.49.26-5.23Zm.76,7,3.32-4.69.27,5.23L6.24,61.75,6,56.52Zm-.56,0L1.62,52.23c.1,1.75.18,3.49.28,5.23l3.78,4.32-.27-5.23Zm1.68,6.93q1.28-2.56,2.57-5.13l1.05,5.13Q9.43,66,8.14,68.61L7.09,63.48Zm-.56.12L2.14,59.89c.35,1.72.71,3.42,1.06,5.14l4.39,3.69q-.52-2.55-1.06-5.12Zm2.53,6.65c.6-1.82,1.19-3.65,1.79-5.46l1.8,4.91q-.88,2.73-1.78,5.46Q10,72.7,9.06,70.25Zm-.52.19-4.9-3,1.81,4.92,4.89,3-1.8-4.92Zm3.37,6.21c.41-1.86.83-3.73,1.24-5.6l2.28,4.71c-.41,1.87-.83,3.74-1.24,5.61l-2.28-4.72Zm-.51.25L6.24,74.39,8.52,79.1l5.16,2.52L11.4,76.9Zm4.16,5.78c.14-1.91.27-3.82.41-5.73l2.94,4.34Q18.7,84.16,18.5,87l-2.94-4.34Zm-.47.32L9.62,81.26l2.94,4.33L18,87.33,15.09,83Zm4.83,5.17c-.05-1.91-.09-3.82-.14-5.74l3.34,4c.05,1.91.09,3.83.14,5.74l-3.34-4Zm-.44.36-5.61-1.21q1.67,2,3.34,4l5.61,1.21-3.34-4ZM25,93.07l-1-5.66,3.88,3.52,1,5.66L25,93.07Zm-.38.42-5.73-.39,3.88,3.51,5.73.4L24.6,93.49Zm6,3.81c-.58-1.82-1.17-3.65-1.76-5.47l4.35,2.92c.59,1.83,1.17,3.65,1.76,5.47L30.61,97.3Zm-.31.47-5.73.43,4.35,2.92,5.72-.43L30.3,97.77Zm6.41,3L34.43,95.5,39,98l2.28,5.27-4.61-2.49Zm-.27.5-5.65,1,4.6,2.48,5.66-1-4.61-2.49Zm6.8,2.15-3-4.88,4.92,1.79,3,4.87-4.92-1.78Zm-.19.53-5.45,1.8,4.92,1.79L48,105.72l-4.92-1.78ZM33.75,5.41,37.6.87,31.82,2.25,28,6.78l5.78-1.37Z" transform="translate(-1.62 -0.87)"/><path class="cls-7" d="M47.53,38.27a.12.12,0,0,1,0-.09l.1-.1a.35.35,0,0,1,.12-.07l.12,0h1.81a.27.27,0,0,1,.2.07.79.79,0,0,1,.13.14l.18.4,3.71,9.58a.21.21,0,0,1,0,.23.34.34,0,0,1-.27.09h-2a.37.37,0,0,1-.25-.07.34.34,0,0,1-.14-.2c-.09-.24-.19-.48-.27-.71s-.19-.49-.27-.72H46.93l-.27.72c-.09.23-.19.47-.27.71a.36.36,0,0,1-.36.27H43.94a.36.36,0,0,1-.22-.07.19.19,0,0,1,0-.22Zm1.28,3q-.14.36-.27.78l-.27.85-.27.83c-.09.27-.19.54-.28.78h2.17Z" transform="translate(-1.62 -0.87)"/><path class="cls-7" d="M57.83,48.35l-.14-.26-.12-.28L54,38.31a.17.17,0,0,0,0-.07.09.09,0,0,1,0-.05c0-.14.08-.2.26-.2h2.28a.35.35,0,0,1,.36.27L59,44.7c.19-.54.38-1.08.56-1.61s.35-1.07.52-1.61.35-1.07.52-1.61.36-1.07.56-1.61a.38.38,0,0,1,.39-.27h2.23a.33.33,0,0,1,.23.06.22.22,0,0,1,.07.16.54.54,0,0,1,0,.08v0l-3.65,9.5-.09.22a1.51,1.51,0,0,1-.11.22.65.65,0,0,1-.15.18.34.34,0,0,1-.19.07H58.12A.3.3,0,0,1,57.83,48.35Z" transform="translate(-1.62 -0.87)"/><path class="cls-7" d="M66.43,38.3a.3.3,0,0,1,.08-.22.27.27,0,0,1,.23-.09h2.08a.37.37,0,0,1,.22.09.25.25,0,0,1,.12.22v9.88c0,.21-.11.32-.34.32H66.74a.28.28,0,0,1-.31-.32Z" transform="translate(-1.62 -0.87)"/><path class="cls-7" d="M73.83,45.1l.3.27.43.32a3.58,3.58,0,0,0,.72.38,2.22,2.22,0,0,0,1.34,0A.93.93,0,0,0,77,45.9a.72.72,0,0,0,.2-.31,1.1,1.1,0,0,0,.06-.37.54.54,0,0,0-.17-.39,1.58,1.58,0,0,0-.4-.31,4.52,4.52,0,0,0-.5-.23l-.45-.16a10.73,10.73,0,0,1-1.5-.64,4.88,4.88,0,0,1-1.06-.76,2.84,2.84,0,0,1-.85-2,2.65,2.65,0,0,1,.27-1.2,2.59,2.59,0,0,1,.76-.92A3.68,3.68,0,0,1,74.56,38a5.27,5.27,0,0,1,1.54-.2,4.72,4.72,0,0,1,2.4.6,4.53,4.53,0,0,1,.46.3,4,4,0,0,1,.37.29,1.3,1.3,0,0,1,.26.27.33.33,0,0,1,.1.22.34.34,0,0,1,0,.17,1,1,0,0,1-.14.17L78.42,41a.33.33,0,0,1-.24.11A.29.29,0,0,1,78,41l-.18-.14-.07-.06-.31-.25c-.11-.08-.24-.15-.37-.23a2.05,2.05,0,0,0-.41-.16,1.41,1.41,0,0,0-.45-.07,2.06,2.06,0,0,0-.44,0,1,1,0,0,0-.36.12.76.76,0,0,0-.25.22.64.64,0,0,0-.09.34.65.65,0,0,0,.1.34.89.89,0,0,0,.3.27,2.49,2.49,0,0,0,.49.24l.68.23c.5.16,1,.34,1.38.52a4.7,4.7,0,0,1,1.1.65,2.73,2.73,0,0,1,.71.88,2.83,2.83,0,0,1,.26,1.26,3,3,0,0,1-.32,1.41,3.24,3.24,0,0,1-.87,1.08,4.29,4.29,0,0,1-1.31.69,5.22,5.22,0,0,1-1.61.24,4.44,4.44,0,0,1-1.6-.29,6.21,6.21,0,0,1-1.46-.78,4.22,4.22,0,0,1-.48-.4l-.3-.32,0,0h0v0a0,0,0,0,1,0,0h0a.53.53,0,0,1-.17-.29c0-.08.06-.16.17-.27L73.28,45a.55.55,0,0,1,.24-.1.22.22,0,0,1,.13,0Z" transform="translate(-1.62 -0.87)"/><path class="cls-7" d="M27,57.93a2.94,2.94,0,0,0-.77-.39,2.65,2.65,0,0,0-2,.08,2.8,2.8,0,0,0-.84.6,2.7,2.7,0,0,0-.54.9,3.07,3.07,0,0,0,0,2.18,2.87,2.87,0,0,0,.54.89,2.61,2.61,0,0,0,.84.59,2.58,2.58,0,0,0,1.08.22,4,4,0,0,0,.49,0l.52-.09V61a.33.33,0,0,1,.08-.22.27.27,0,0,1,.23-.09h1.92a.37.37,0,0,1,.23.09A.25.25,0,0,1,29,61v3.42a.37.37,0,0,1-.2.32,5.17,5.17,0,0,1-.74.39,5.88,5.88,0,0,1-.84.27,8.72,8.72,0,0,1-.89.16c-.3,0-.59,0-.87,0a5.48,5.48,0,0,1-3.83-1.58A5.87,5.87,0,0,1,20.77,63a5.36,5.36,0,0,1,0-5.46,5.62,5.62,0,0,1,.84-1.1,5,5,0,0,1,1.1-.85A5.67,5.67,0,0,1,24,55a5.37,5.37,0,0,1,3,0,5.62,5.62,0,0,1,1.42.68.47.47,0,0,1,.18.19.23.23,0,0,1,0,.26l-1.14,1.66a.37.37,0,0,1-.19.15Q27.19,58,27,57.93Z" transform="translate(-1.62 -0.87)"/><path class="cls-7" d="M35.1,55.24a.16.16,0,0,1,0-.09l.09-.09.12-.07a.25.25,0,0,1,.12,0h1.81a.31.31,0,0,1,.21.07.47.47,0,0,1,.12.14l.18.4,3.72,9.58a.21.21,0,0,1,0,.23.33.33,0,0,1-.26.09h-2a.41.41,0,0,1-.25-.07.34.34,0,0,1-.14-.2c-.1-.24-.19-.48-.28-.72s-.18-.47-.27-.72H34.51c-.09.25-.18.49-.28.72l-.27.72a.35.35,0,0,1-.36.27H31.51a.33.33,0,0,1-.22-.08.16.16,0,0,1,0-.21Zm1.29,3q-.14.36-.27.78c-.1.28-.19.56-.28.84l-.27.84c-.09.28-.18.53-.27.77h2.17Z" transform="translate(-1.62 -0.87)"/><path class="cls-7" d="M44,55.29a.28.28,0,0,1,.08-.23.29.29,0,0,1,.23-.09h4.57a3.45,3.45,0,0,1,2.47,1,3.32,3.32,0,0,1,.75,1.09,3.17,3.17,0,0,1,.28,1.33,3.06,3.06,0,0,1-.14.92,2.82,2.82,0,0,1-.36.81,3.13,3.13,0,0,1-.56.69,3.31,3.31,0,0,1-.7.53l1.82,3.42a2.67,2.67,0,0,0,.12.24.4.4,0,0,1,.08.23.21.21,0,0,1-.07.17.32.32,0,0,1-.2.07H49.94a.32.32,0,0,1-.21-.08.31.31,0,0,1-.13-.19L47.88,62H46.74v3.2c0,.2-.11.31-.33.31h-2.1a.36.36,0,0,1-.23-.08.32.32,0,0,1-.08-.23Zm5.54,3.14a1.25,1.25,0,0,0-.08-.42,1.5,1.5,0,0,0-.22-.39,1.41,1.41,0,0,0-.34-.3,1.1,1.1,0,0,0-.44-.15l-.37,0a2.24,2.24,0,0,0-.38,0h-1v2.6h1.52l.22,0a1.25,1.25,0,0,0,.45-.14,1.18,1.18,0,0,0,.33-.3,1.28,1.28,0,0,0,.21-.38A1.41,1.41,0,0,0,49.54,58.43Z" transform="translate(-1.62 -0.87)"/><path class="cls-7" d="M58,55.24a.14.14,0,0,1,0-.09.45.45,0,0,1,.1-.09l.12-.07a.25.25,0,0,1,.12,0H60.2a.27.27,0,0,1,.2.07.79.79,0,0,1,.13.14l.18.4,3.71,9.58a.19.19,0,0,1,0,.23.34.34,0,0,1-.27.09h-2a.44.44,0,0,1-.25-.07.34.34,0,0,1-.14-.2c-.09-.24-.19-.48-.27-.72s-.18-.47-.27-.72H57.41q-.13.37-.27.72t-.27.72a.36.36,0,0,1-.37.27H54.42a.36.36,0,0,1-.23-.08c-.06-.05-.06-.12,0-.21Zm1.28,3q-.13.36-.27.78l-.27.84-.27.84c-.09.28-.19.53-.28.77h2.17Z" transform="translate(-1.62 -0.87)"/><path class="cls-7" d="M66.92,55.28a.29.29,0,0,1,.08-.22.27.27,0,0,1,.23-.09h2.31a.43.43,0,0,1,.21.05.42.42,0,0,1,.18.17c.6,1,1.19,1.92,1.78,2.85L73.5,60.9V55.23a.31.31,0,0,1,.12-.19.26.26,0,0,1,.19-.07h2a.41.41,0,0,1,.25.08.29.29,0,0,1,.1.23V65.2a.23.23,0,0,1-.09.2.32.32,0,0,1-.23.08H73.6a.26.26,0,0,1-.16-.07,1.29,1.29,0,0,1-.15-.17l-1.86-3.08-1.86-3.07v6.07a.3.3,0,0,1-.08.23.29.29,0,0,1-.25.09h-2a.3.3,0,0,1-.24-.09.34.34,0,0,1-.07-.22Z" transform="translate(-1.62 -0.87)"/><path class="cls-7" d="M79,55.28a.28.28,0,0,1,.1-.23A.36.36,0,0,1,79.3,55h7.61a.38.38,0,0,1,.23.08.27.27,0,0,1,.11.23V57a.39.39,0,0,1-.08.25.3.3,0,0,1-.26.11H84.47v7.75a.35.35,0,0,1-.09.23.29.29,0,0,1-.24.11H82.07a.32.32,0,0,1-.23-.1.33.33,0,0,1-.1-.24V57.39H79.3a.32.32,0,0,1-.23-.09A.33.33,0,0,1,79,57Z" transform="translate(-1.62 -0.87)"/><path class="cls-7" d="M90.05,55.28a.33.33,0,0,1,.08-.22.3.3,0,0,1,.24-.09h2.07a.43.43,0,0,1,.23.08.27.27,0,0,1,.12.23v9.88c0,.21-.11.32-.35.32H90.37a.29.29,0,0,1-.32-.32Z" transform="translate(-1.62 -0.87)"/><path class="cls-7" d="M97.46,62.08c.07.06.18.15.3.27l.43.32a3.08,3.08,0,0,0,.72.37,1.81,1.81,0,0,0,.74.14,1.74,1.74,0,0,0,.6-.08,1.29,1.29,0,0,0,.39-.21.83.83,0,0,0,.2-.32,1.15,1.15,0,0,0,.06-.37.54.54,0,0,0-.17-.39,1.58,1.58,0,0,0-.4-.31,3.32,3.32,0,0,0-.51-.23l-.45-.16a10.41,10.41,0,0,1-1.48-.64,4.2,4.2,0,0,1-1.06-.77,2.6,2.6,0,0,1-.64-.92A2.92,2.92,0,0,1,96,57.65a2.73,2.73,0,0,1,.26-1.19,2.59,2.59,0,0,1,.76-.92A3.4,3.4,0,0,1,98.19,55a5.21,5.21,0,0,1,1.54-.21,5.07,5.07,0,0,1,1.24.15,4.52,4.52,0,0,1,1.16.46l.46.29a4.2,4.2,0,0,1,.38.3,2,2,0,0,1,.25.26.41.41,0,0,1,.1.22.29.29,0,0,1,0,.17.55.55,0,0,1-.14.18l-1.08,1.15a.35.35,0,0,1-.24.12.31.31,0,0,1-.18,0l-.17-.14-.07-.06-.32-.25a2.26,2.26,0,0,0-.37-.22,1.54,1.54,0,0,0-.42-.17,1.32,1.32,0,0,0-.44-.08,2,2,0,0,0-.44,0,1,1,0,0,0-.36.12.67.67,0,0,0-.25.22.59.59,0,0,0-.09.34.57.57,0,0,0,.1.34,1.14,1.14,0,0,0,.3.27,2.51,2.51,0,0,0,.49.23l.68.24a12.88,12.88,0,0,1,1.38.52,5,5,0,0,1,1.1.64,2.67,2.67,0,0,1,.71.89,2.78,2.78,0,0,1,.26,1.25,3.11,3.11,0,0,1-.32,1.41,3.06,3.06,0,0,1-.87,1.08,4,4,0,0,1-1.3.69,5,5,0,0,1-1.62.25,4.49,4.49,0,0,1-1.6-.3,5.83,5.83,0,0,1-1.46-.77,4.22,4.22,0,0,1-.48-.41l-.31-.32,0,0v0a0,0,0,0,1,0,0h0s0,0,0,0a.45.45,0,0,1-.16-.28.39.39,0,0,1,.16-.27L96.91,62a.44.44,0,0,1,.24-.12.24.24,0,0,1,.13.05A.78.78,0,0,1,97.46,62.08Z" transform="translate(-1.62 -0.87)"/><path class="cls-7" d="M37.69,25.5l.8.68a4.77,4.77,0,0,1,.72.77,3.53,3.53,0,0,1,.52.93,3.34,3.34,0,0,1,.2,1.17,2.41,2.41,0,0,1-.19.93,2.49,2.49,0,0,1-.51.75,2.39,2.39,0,0,1-.74.51,2.32,2.32,0,0,1-1.84,0A2.33,2.33,0,0,1,35.39,30a2.23,2.23,0,0,1-.19-.92h.54a1.71,1.71,0,0,0,.15.71,1.8,1.8,0,0,0,.39.58,2,2,0,0,0,.58.39,1.71,1.71,0,0,0,.71.15,1.63,1.63,0,0,0,.7-.15,2.11,2.11,0,0,0,.58-.39,2,2,0,0,0,.39-.58,1.71,1.71,0,0,0,.15-.71,2.62,2.62,0,0,0-.18-1,3.22,3.22,0,0,0-.45-.81,5.32,5.32,0,0,0-.66-.69c-.24-.21-.5-.42-.76-.63s-.52-.42-.77-.64a5.25,5.25,0,0,1-.69-.73,3.37,3.37,0,0,1-.49-.87,2.83,2.83,0,0,1-.19-1.09,2.24,2.24,0,0,1,.19-.93,2.4,2.4,0,0,1,.5-.75,2.45,2.45,0,0,1,.76-.5,2.2,2.2,0,0,1,.92-.19,2.3,2.3,0,0,1,1.66.68,2.49,2.49,0,0,1,.51.75,2.37,2.37,0,0,1,.19.92h-.54a1.66,1.66,0,0,0-.15-.7,1.91,1.91,0,0,0-1-1,1.78,1.78,0,0,0-.7-.14,1.87,1.87,0,0,0-.71.14,1.82,1.82,0,0,0-.58.4,1.75,1.75,0,0,0-.39.57,1.66,1.66,0,0,0-.15.7,2.45,2.45,0,0,0,.16.93,3.14,3.14,0,0,0,.44.75,4.65,4.65,0,0,0,.62.64C37.19,25.1,37.43,25.3,37.69,25.5Z" transform="translate(-1.62 -0.87)"/><path class="cls-7" d="M43.47,31.43a2.19,2.19,0,0,1-.85-.17,2.27,2.27,0,0,1-.7-.47,2.34,2.34,0,0,1-.47-.69,2.27,2.27,0,0,1-.17-.86V25.39a2.19,2.19,0,0,1,.17-.85,2.27,2.27,0,0,1,.47-.7,2.46,2.46,0,0,1,.7-.47,2.19,2.19,0,0,1,.85-.17,2.24,2.24,0,0,1,.86.17,2.46,2.46,0,0,1,.7.47,2.24,2.24,0,0,1,.46.7,2,2,0,0,1,.18.85v3.85a2.11,2.11,0,0,1-.18.86,2.31,2.31,0,0,1-.46.69,2.27,2.27,0,0,1-.7.47A2.24,2.24,0,0,1,43.47,31.43Zm0-7.69a1.74,1.74,0,0,0-.64.13,1.67,1.67,0,0,0-.88.88,1.74,1.74,0,0,0-.13.64v3.85a1.7,1.7,0,0,0,.13.64,1.81,1.81,0,0,0,.35.53,2,2,0,0,0,.53.35,1.67,1.67,0,0,0,1.29,0,1.76,1.76,0,0,0,.52-.35,1.49,1.49,0,0,0,.35-.53,1.53,1.53,0,0,0,.14-.64V25.39a1.57,1.57,0,0,0-.14-.64,1.45,1.45,0,0,0-.35-.52,1.61,1.61,0,0,0-.52-.36A1.75,1.75,0,0,0,43.47,23.74Z" transform="translate(-1.62 -0.87)"/><path class="cls-7" d="M49.21,30.89a1.57,1.57,0,0,0,.65-.13,1.76,1.76,0,0,0,.52-.35,1.49,1.49,0,0,0,.35-.53,1.53,1.53,0,0,0,.13-.64h.54a2.1,2.1,0,0,1-.17.86,2.31,2.31,0,0,1-.46.69,2.27,2.27,0,0,1-.7.47,2.24,2.24,0,0,1-.86.17,2.27,2.27,0,0,1-.86-.17,2.24,2.24,0,0,1-1.16-1.16,2.27,2.27,0,0,1-.17-.86V25.39a2.19,2.19,0,0,1,.17-.85,2.27,2.27,0,0,1,.47-.7,2.55,2.55,0,0,1,.69-.47,2.27,2.27,0,0,1,.86-.17,2.24,2.24,0,0,1,.86.17,2.46,2.46,0,0,1,.7.47,2.24,2.24,0,0,1,.46.7,2,2,0,0,1,.17.85h-.54a1.56,1.56,0,0,0-.13-.64,1.45,1.45,0,0,0-.35-.52,1.61,1.61,0,0,0-.52-.36,1.75,1.75,0,0,0-.65-.13,1.7,1.7,0,0,0-.64.13,1.67,1.67,0,0,0-.88.88,1.56,1.56,0,0,0-.13.64v3.85a1.53,1.53,0,0,0,.13.64,1.81,1.81,0,0,0,.35.53,2,2,0,0,0,.53.35A1.53,1.53,0,0,0,49.21,30.89Z" transform="translate(-1.62 -0.87)"/><path class="cls-7" d="M53.32,23.15h.54v8.08h-.54V23.71h-.54v-.56Zm.13-1.86a.38.38,0,0,1-.41-.41.4.4,0,0,1,.11-.29.41.41,0,0,1,.3-.12.38.38,0,0,1,.28.12.35.35,0,0,1,.13.29.38.38,0,0,1-.13.3A.41.41,0,0,1,53.45,21.29Z" transform="translate(-1.62 -0.87)"/><path class="cls-7" d="M58.35,26.87l-.49.18-.74.29-.78.29-.59.22v1.39a1.7,1.7,0,0,0,.13.64,1.66,1.66,0,0,0,.36.53,1.76,1.76,0,0,0,.52.35,1.67,1.67,0,0,0,1.29,0,1.76,1.76,0,0,0,.52-.35,1.66,1.66,0,0,0,.36-.53,1.7,1.7,0,0,0,.13-.64h.54a2.11,2.11,0,0,1-.18.86,2.14,2.14,0,0,1-.46.69,2.27,2.27,0,0,1-.7.47,2.24,2.24,0,0,1-1.71,0,2.27,2.27,0,0,1-.7-.47,2.31,2.31,0,0,1-.46-.69,2.11,2.11,0,0,1-.18-.86V25.39a2,2,0,0,1,.18-.85,2.24,2.24,0,0,1,.46-.7,2.46,2.46,0,0,1,.7-.47,2.24,2.24,0,0,1,1.71,0,2.46,2.46,0,0,1,.7.47,2.08,2.08,0,0,1,.46.7,2,2,0,0,1,.18.84h0C59.6,26.07,59.18,26.56,58.35,26.87Zm.54-6.38.17.52-3.14,1-.17-.52Zm-1.48,3.25a1.75,1.75,0,0,0-.65.13,1.77,1.77,0,0,0-.88.88,1.74,1.74,0,0,0-.13.64v1.88l.61-.23.72-.27.66-.25.43-.16a2.37,2.37,0,0,0,.59-.34.77.77,0,0,0,.3-.64,1.7,1.7,0,0,0-.13-.64,1.57,1.57,0,0,0-.36-.51,1.61,1.61,0,0,0-.52-.36A1.74,1.74,0,0,0,57.41,23.74Z" transform="translate(-1.62 -0.87)"/><path class="cls-7" d="M61.49,27.31v1.93a1.69,1.69,0,0,0,.12.64,1.55,1.55,0,0,0,.31.53,1.6,1.6,0,0,0,.46.35,1.17,1.17,0,0,0,.55.13v.54a1.84,1.84,0,0,1-.77-.17,2.08,2.08,0,0,1-.63-.47,2.2,2.2,0,0,1-.42-.69,2.48,2.48,0,0,1-.16-.86V21h.54v2.29h1.77v.54H61.49Z" transform="translate(-1.62 -0.87)"/><path class="cls-7" d="M67.43,26.87l-.49.18c-.23.1-.48.19-.75.29l-.77.29-.59.22v1.39a1.53,1.53,0,0,0,.13.64,1.63,1.63,0,0,0,.35.53,1.9,1.9,0,0,0,.52.35,1.69,1.69,0,0,0,1.3,0,1.9,1.9,0,0,0,.52-.35,1.63,1.63,0,0,0,.35-.53,1.53,1.53,0,0,0,.13-.64h.54a2.27,2.27,0,0,1-.17.86,2.34,2.34,0,0,1-.47.69,2.11,2.11,0,0,1-.69.47,2.26,2.26,0,0,1-1.72,0,2.11,2.11,0,0,1-.69-.47,2.34,2.34,0,0,1-.47-.69,2.27,2.27,0,0,1-.17-.86V25.39a2.19,2.19,0,0,1,.17-.85,2.21,2.21,0,0,1,1.16-1.17,2.26,2.26,0,0,1,1.72,0,2.21,2.21,0,0,1,1.16,1.17,2.14,2.14,0,0,1,.17.84h0C68.67,26.07,68.26,26.56,67.43,26.87ZM68,20.49l.16.52L65,22l-.16-.52Zm-1.49,3.25a1.79,1.79,0,0,0-.65.13,1.73,1.73,0,0,0-.52.36,1.59,1.59,0,0,0-.35.52,1.56,1.56,0,0,0-.13.64v1.88l.6-.23.72-.27.67-.25.43-.16a2.56,2.56,0,0,0,.59-.34.79.79,0,0,0,.29-.64,1.53,1.53,0,0,0-.13-.64,1.54,1.54,0,0,0-.35-.51,1.73,1.73,0,0,0-.52-.36A1.79,1.79,0,0,0,66.48,23.74Z" transform="translate(-1.62 -0.87)"/><path class="cls-7" d="M77.16,19.62V31.35h-.54v-.67a2.36,2.36,0,0,1-.74.54,2,2,0,0,1-.91.21,2.24,2.24,0,0,1-.86-.17,2.27,2.27,0,0,1-.7-.47A2.31,2.31,0,0,1,73,30.1a2.1,2.1,0,0,1-.17-.86V25.39a2,2,0,0,1,.17-.85,2.24,2.24,0,0,1,.46-.7,2.46,2.46,0,0,1,.7-.47A2.24,2.24,0,0,1,75,23.2a2.16,2.16,0,0,1,.91.2,2.14,2.14,0,0,1,.74.56V19.62ZM75,30.89a1.53,1.53,0,0,0,.64-.13,2,2,0,0,0,.53-.35,1.81,1.81,0,0,0,.35-.53,1.7,1.7,0,0,0,.13-.64V25.39a1.74,1.74,0,0,0-.13-.64,1.67,1.67,0,0,0-.88-.88,1.7,1.7,0,0,0-.64-.13,1.75,1.75,0,0,0-.65.13,1.73,1.73,0,0,0-.52.36,1.45,1.45,0,0,0-.35.52,1.56,1.56,0,0,0-.13.64v3.85a1.53,1.53,0,0,0,.13.64,1.49,1.49,0,0,0,.35.53,1.9,1.9,0,0,0,.52.35A1.57,1.57,0,0,0,75,30.89Z" transform="translate(-1.62 -0.87)"/><path class="cls-7" d="M81.74,26.87l-.49.18c-.23.1-.48.19-.75.29l-.77.29-.59.22v1.39a1.53,1.53,0,0,0,.13.64,1.49,1.49,0,0,0,.35.53,1.9,1.9,0,0,0,.52.35,1.57,1.57,0,0,0,.65.13,1.53,1.53,0,0,0,.64-.13,1.58,1.58,0,0,0,.88-.88,1.53,1.53,0,0,0,.13-.64H83a2.27,2.27,0,0,1-.17.86,2.34,2.34,0,0,1-.47.69,2.22,2.22,0,0,1-.69.47,2.27,2.27,0,0,1-.86.17,2.24,2.24,0,0,1-.86-.17,2.27,2.27,0,0,1-.7-.47,2.31,2.31,0,0,1-.46-.69,2.1,2.1,0,0,1-.17-.86V25.39a2,2,0,0,1,.17-.85,2.24,2.24,0,0,1,.46-.7,2.46,2.46,0,0,1,.7-.47,2.24,2.24,0,0,1,.86-.17,2.27,2.27,0,0,1,.86.17,2.41,2.41,0,0,1,.69.47,2.27,2.27,0,0,1,.47.7,2.14,2.14,0,0,1,.17.84h0C83,26.07,82.56,26.56,81.74,26.87Zm-.95-3.13a1.75,1.75,0,0,0-.65.13,1.73,1.73,0,0,0-.52.36,1.45,1.45,0,0,0-.35.52,1.56,1.56,0,0,0-.13.64v1.88l.6-.23.72-.27.66-.25.44-.16a2.78,2.78,0,0,0,.59-.34.79.79,0,0,0,.29-.64,1.53,1.53,0,0,0-.13-.64,1.71,1.71,0,0,0-.35-.51,1.66,1.66,0,0,0-.53-.36A1.7,1.7,0,0,0,80.79,23.74Z" transform="translate(-1.62 -0.87)"/><path class="cls-7" d="M86.5,27.06c.23.12.48.25.72.39a3.22,3.22,0,0,1,.66.46,2.65,2.65,0,0,1,.49.58,1.52,1.52,0,0,1,.19.75,2.11,2.11,0,0,1-.18.86,2.31,2.31,0,0,1-.46.69,2.27,2.27,0,0,1-.7.47,2.24,2.24,0,0,1-1.71,0,2.27,2.27,0,0,1-.7-.47,2.34,2.34,0,0,1-.47-.69,2.27,2.27,0,0,1-.17-.86h.54a1.7,1.7,0,0,0,.13.64,1.81,1.81,0,0,0,.35.53,2,2,0,0,0,.53.35,1.53,1.53,0,0,0,.64.13,1.57,1.57,0,0,0,.65-.13,1.76,1.76,0,0,0,.52-.35,1.49,1.49,0,0,0,.35-.53,1.53,1.53,0,0,0,.14-.64.94.94,0,0,0-.15-.53,1.79,1.79,0,0,0-.39-.44,5.1,5.1,0,0,0-.57-.37l-.66-.35c-.25-.12-.5-.24-.74-.38a4.16,4.16,0,0,1-.67-.46,2.6,2.6,0,0,1-.48-.57,1.49,1.49,0,0,1-.19-.75,2.19,2.19,0,0,1,.17-.85,2.27,2.27,0,0,1,.47-.7,2.46,2.46,0,0,1,.7-.47,2.24,2.24,0,0,1,1.71,0,2.46,2.46,0,0,1,.7.47,2.24,2.24,0,0,1,.46.7,2,2,0,0,1,.18.85H88a1.57,1.57,0,0,0-.14-.64,1.45,1.45,0,0,0-.35-.52,1.61,1.61,0,0,0-.52-.36,1.75,1.75,0,0,0-.65-.13,1.7,1.7,0,0,0-.64.13,1.67,1.67,0,0,0-.88.88,1.74,1.74,0,0,0-.13.64,1,1,0,0,0,.15.54,1.78,1.78,0,0,0,.4.43,5.1,5.1,0,0,0,.57.37Z" transform="translate(-1.62 -0.87)"/></svg>